<mxfile host="65bd71144e">
    <diagram id="I51dCXUfLKXzMj1iafyC" name="Page-1">
        <mxGraphModel dx="1525" dy="1179" grid="1" gridSize="10" guides="1" tooltips="1" connect="1" arrows="1" fold="1" page="0" pageScale="1" pageWidth="850" pageHeight="1100" math="0" shadow="0">
            <root>
                <mxCell id="0"/>
                <mxCell id="1" parent="0"/>
                <mxCell id="2" value="Input&lt;br&gt;&lt;br&gt;Such as:&lt;br&gt;&lt;div style=&quot;text-align: left;&quot;&gt;- Camera&lt;/div&gt;&lt;div style=&quot;text-align: left;&quot;&gt;- Sensors&lt;/div&gt;&lt;div style=&quot;text-align: left;&quot;&gt;- etc.&lt;/div&gt;" style="rounded=1;whiteSpace=wrap;html=1;fontStyle=1" parent="1" vertex="1">
                    <mxGeometry x="170" y="150" width="110" height="110" as="geometry"/>
                </mxCell>
                <mxCell id="17" style="edgeStyle=none;html=1;entryX=0.5;entryY=0;entryDx=0;entryDy=0;" parent="1" source="3" target="16" edge="1">
                    <mxGeometry relative="1" as="geometry"/>
                </mxCell>
                <mxCell id="3" value="Autonomus Robots" style="shape=umlActor;verticalLabelPosition=bottom;verticalAlign=top;html=1;outlineConnect=0;" parent="1" vertex="1">
                    <mxGeometry x="160" y="-40" width="60" height="100" as="geometry"/>
                </mxCell>
                <mxCell id="27" style="edgeStyle=none;html=1;exitX=0.5;exitY=1;exitDx=0;exitDy=0;entryX=0.5;entryY=0;entryDx=0;entryDy=0;fontSize=20;" parent="1" source="16" target="23" edge="1">
                    <mxGeometry relative="1" as="geometry"/>
                </mxCell>
                <mxCell id="16" value="" style="rounded=1;whiteSpace=wrap;html=1;fillColor=none;" parent="1" vertex="1">
                    <mxGeometry x="140" y="128.75" width="620" height="152.5" as="geometry"/>
                </mxCell>
                <mxCell id="6" value="Output&lt;br&gt;&lt;br&gt;Such as:&lt;br&gt;&lt;div style=&quot;text-align: left;&quot;&gt;- Movement&lt;/div&gt;&lt;div style=&quot;text-align: left;&quot;&gt;- etc.&lt;/div&gt;" style="rounded=1;whiteSpace=wrap;html=1;" parent="1" vertex="1">
                    <mxGeometry x="585" y="152.5" width="130" height="105" as="geometry"/>
                </mxCell>
                <mxCell id="11" value="" style="shape=singleArrow;whiteSpace=wrap;html=1;" parent="1" vertex="1">
                    <mxGeometry x="290" y="187.5" width="70" height="35" as="geometry"/>
                </mxCell>
                <mxCell id="12" value="" style="shape=singleArrow;whiteSpace=wrap;html=1;" parent="1" vertex="1">
                    <mxGeometry x="510" y="187.5" width="70" height="35" as="geometry"/>
                </mxCell>
                <mxCell id="13" value="Must understand well what the inputs like.&lt;br&gt;&lt;br&gt;&lt;div style=&quot;text-align: left;&quot;&gt;- Format&lt;/div&gt;&lt;div style=&quot;text-align: left;&quot;&gt;- Behaviors&lt;/div&gt;&lt;div style=&quot;text-align: left;&quot;&gt;- Operations&lt;/div&gt;" style="rounded=1;whiteSpace=wrap;html=1;" parent="1" vertex="1">
                    <mxGeometry x="140" y="360" width="140" height="100" as="geometry"/>
                </mxCell>
                <mxCell id="15" value="Process" style="rounded=1;whiteSpace=wrap;html=1;" parent="1" vertex="1">
                    <mxGeometry x="370" y="152.5" width="130" height="105" as="geometry"/>
                </mxCell>
                <mxCell id="18" value="Understand how to use the methods or algorithms to process the input." style="rounded=1;whiteSpace=wrap;html=1;" parent="1" vertex="1">
                    <mxGeometry x="360" y="360" width="150" height="100" as="geometry"/>
                </mxCell>
                <mxCell id="20" value="Interpreting the output of the process into a movement." style="rounded=1;whiteSpace=wrap;html=1;" parent="1" vertex="1">
                    <mxGeometry x="600" y="360" width="150" height="100" as="geometry"/>
                </mxCell>
                <mxCell id="21" value="" style="shape=singleArrow;whiteSpace=wrap;html=1;" parent="1" vertex="1">
                    <mxGeometry x="290" y="390" width="60" height="35" as="geometry"/>
                </mxCell>
                <mxCell id="23" value="" style="rounded=1;whiteSpace=wrap;html=1;fillColor=none;" parent="1" vertex="1">
                    <mxGeometry x="130" y="333.75" width="640" height="156.25" as="geometry"/>
                </mxCell>
                <mxCell id="22" value="" style="shape=singleArrow;whiteSpace=wrap;html=1;" parent="1" vertex="1">
                    <mxGeometry x="525" y="390" width="60" height="35" as="geometry"/>
                </mxCell>
                <mxCell id="24" value="&lt;font style=&quot;font-size: 20px;&quot;&gt;Our Learning &lt;br&gt;Rodmap&lt;/font&gt;" style="text;html=1;align=right;verticalAlign=middle;resizable=0;points=[];autosize=1;strokeColor=none;fillColor=none;" parent="1" vertex="1">
                    <mxGeometry x="-20" y="330" width="140" height="60" as="geometry"/>
                </mxCell>
                <mxCell id="25" value="&lt;font style=&quot;font-size: 20px;&quot;&gt;Our Learning &lt;br&gt;Objective&lt;/font&gt;" style="text;html=1;align=right;verticalAlign=middle;resizable=0;points=[];autosize=1;strokeColor=none;fillColor=none;" parent="1" vertex="1">
                    <mxGeometry x="-120" y="-20" width="140" height="60" as="geometry"/>
                </mxCell>
                <mxCell id="26" value="" style="shape=singleArrow;whiteSpace=wrap;html=1;" parent="1" vertex="1">
                    <mxGeometry x="50" y="-7.5" width="70" height="35" as="geometry"/>
                </mxCell>
            </root>
        </mxGraphModel>
    </diagram>
</mxfile>